<?xml version="1.0" encoding="UTF-8"?>
<svg version="1.1" xmlns="http://www.w3.org/2000/svg" width="512" height="512">
<path d="M0 0 C1.46637637 -0.00461421 2.93274811 -0.01097061 4.39911026 -0.01890898 C8.41101693 -0.03555402 12.42254132 -0.02737812 16.43444908 -0.0149641 C20.76784363 -0.00589616 25.10117345 -0.01989192 29.43455505 -0.03088379 C37.91641856 -0.04865455 46.39814034 -0.04483559 54.88000936 -0.03323323 C61.7738077 -0.02419409 68.66756637 -0.02297698 75.56136894 -0.02732849 C76.54309299 -0.02794142 77.52481704 -0.02855436 78.5362903 -0.02918586 C80.53072565 -0.03046478 82.525161 -0.03176163 84.51959633 -0.03307623 C103.21363783 -0.04447764 121.90760081 -0.03137488 140.60162943 -0.00987476 C156.63875071 0.00799861 172.67575617 0.00488929 188.71287537 -0.0135498 C207.34226813 -0.03495944 225.97159213 -0.04338199 244.60099548 -0.03110075 C246.58772559 -0.02982657 248.57445571 -0.02856909 250.56118584 -0.02732849 C251.5386644 -0.02671139 252.51614295 -0.02609429 253.52324207 -0.02545848 C260.40853279 -0.02200608 267.29377985 -0.02783153 274.1790638 -0.0372467 C282.57018251 -0.04846896 290.96115156 -0.04542173 299.35225315 -0.02412373 C303.63277879 -0.0136168 307.91305497 -0.00948538 312.19357872 -0.02272034 C316.11362532 -0.03465739 320.03319169 -0.0280604 323.95319485 -0.00681013 C325.36960849 -0.00234963 326.78606288 -0.004598 328.20245022 -0.01431328 C336.09928391 -0.06431562 341.7545052 0.23283092 348.49436951 4.50793457 C349.38124451 5.06480957 350.26811951 5.62168457 351.18186951 6.19543457 C357.5162368 12.52980186 359.61353919 19.56134827 359.6348114 28.29527283 C359.63926808 29.3180375 359.63926808 29.3180375 359.6438148 30.36146408 C359.65248357 32.6452447 359.65400848 34.92897279 359.65550232 37.21276855 C359.66013168 38.85054638 359.6651565 40.48832313 359.67054749 42.12609863 C359.68365964 46.57440232 359.6901138 51.02269093 359.69455814 55.47101092 C359.69748997 58.2497247 359.70159492 61.02843437 359.70606232 63.80714607 C359.71973233 72.50015412 359.72940218 81.19315275 359.73326421 89.8861708 C359.73774794 99.92333993 359.7553125 109.96037307 359.7842648 119.99750084 C359.8058672 127.75556005 359.81596767 135.51358095 359.81730533 143.27166992 C359.81835412 147.90577521 359.8242781 152.53975258 359.84212494 157.17382622 C359.85858136 161.53146184 359.86077301 165.88887304 359.85198593 170.24652863 C359.85121433 171.84570732 359.85557449 173.44489797 359.86544418 175.0440464 C359.87812995 177.22750339 359.87230602 179.41016139 359.86186218 181.59361267 C359.86332874 182.81532386 359.8647953 184.03703505 359.8663063 185.29576778 C359.45920612 188.81161698 358.57773338 190.679446 356.49436951 193.50793457 C353.83937227 195.59400383 352.42686447 195.50672912 348.99436951 195.44543457 C344.71660147 194.29960385 343.82992389 193.20392143 341.49436951 189.50793457 C340.99214745 186.32700253 340.99214745 186.32700253 340.98884583 182.66954041 C340.98275571 181.9943044 340.97666559 181.3190684 340.97039092 180.62337071 C340.95481247 178.36766036 340.96756938 176.11301512 340.98020935 173.8572998 C340.97474769 172.23745049 340.96750577 170.61760635 340.95861816 168.99777222 C340.94328625 165.51316479 340.94047675 162.02885177 340.94738388 158.54421806 C340.95816758 153.03559222 340.94079239 147.52727428 340.91957092 142.01869202 C340.88931345 133.30773989 340.87761624 124.59687894 340.87399447 115.88587862 C340.86734511 100.28099699 340.83837682 84.67617837 340.78889811 69.07137448 C340.77238577 63.59391834 340.76698614 58.1165948 340.7704885 52.63911617 C340.7709251 49.23443462 340.76336769 45.82980328 340.75381279 42.42513657 C340.751127 40.84489583 340.7518868 39.26464498 340.75632286 37.68440819 C340.76195512 35.52925849 340.75542755 33.37447336 340.7459259 31.21934509 C340.74559042 30.01275962 340.74525494 28.80617414 340.74490929 27.56302547 C340.50301765 24.61339027 340.13699469 22.9409535 338.49436951 20.50793457 C335.82869062 19.17509513 333.80851283 19.38003646 330.82180882 19.37650681 C329.60745515 19.37266566 328.39310149 19.36882452 327.14194924 19.36486697 C325.78217346 19.3656473 324.42239773 19.36652611 323.06262207 19.36749268 C321.6276027 19.3649105 320.19258404 19.36189775 318.75756639 19.35848927 C314.80012565 19.35039885 310.84270302 19.34862857 306.88525498 19.34789181 C302.62274761 19.34604483 298.36024972 19.33849937 294.0977478 19.33175659 C284.77151725 19.31815891 275.44529099 19.31214651 266.11905217 19.30774593 C260.30006459 19.3049863 254.48107867 19.3007495 248.66209221 19.29624176 C232.56301128 19.28404792 216.46393168 19.27374838 200.36484623 19.27036667 C199.33394244 19.2701471 198.30303865 19.26992754 197.24089536 19.26970132 C195.69076637 19.2693739 195.69076637 19.2693739 194.10932165 19.26903987 C192.01509607 19.2685964 189.92087048 19.26814983 187.8266449 19.2677002 C186.26842089 19.26736805 186.26842089 19.26736805 184.67871761 19.2670292 C167.83555007 19.2630788 150.99242573 19.24561795 134.14927489 19.22234067 C116.87243577 19.19865596 99.59561835 19.18616616 82.31876272 19.18499875 C72.61202133 19.18408044 62.90533624 19.1782889 53.19861031 19.16017914 C44.93530612 19.14481705 36.67207564 19.13963461 28.4087599 19.14791724 C24.18968865 19.15183743 19.97076599 19.15082786 15.7517128 19.13685989 C11.89341646 19.1242026 8.0353816 19.12524574 4.17708605 19.13745061 C2.77736843 19.13942188 1.3776328 19.13626387 -0.02205943 19.12760624 C-1.91708607 19.11662198 -3.81219797 19.12573618 -5.70722866 19.13599777 C-6.76214675 19.13540068 -7.81706485 19.1348036 -8.90395015 19.13418841 C-11.47350125 19.34177621 -11.47350125 19.34177621 -13.34443539 20.55182481 C-15.15959392 23.6095791 -14.91584565 26.72345486 -14.88315392 30.17762756 C-14.88751424 30.97034919 -14.89187456 31.76307082 -14.89636701 32.57981431 C-14.90738889 35.25857998 -14.89686922 37.93683796 -14.88658142 40.61560059 C-14.89003525 42.54646094 -14.89479795 44.47731933 -14.90076315 46.40817356 C-14.9133406 51.73159341 -14.90707224 57.05485289 -14.8978045 62.37827349 C-14.89104184 68.11249434 -14.90148136 73.84668681 -14.90974426 79.5809021 C-14.92311363 90.82116162 -14.92018962 102.06136119 -14.91150634 113.30162311 C-14.90474278 122.43339707 -14.90380731 131.56515418 -14.90707779 140.69692993 C-14.90753749 141.99452635 -14.90799719 143.29212278 -14.90847082 144.6290403 C-14.90942995 147.26473451 -14.91040259 149.90042872 -14.91138859 152.53612292 C-14.91970755 176.56970391 -14.91106719 200.60325244 -14.8953608 224.6368282 C-14.88112334 246.58964944 -14.8823972 268.54241848 -14.89674377 290.49523926 C-14.91279798 315.14358745 -14.91912781 339.79190407 -14.90990698 364.44025707 C-14.90895129 367.06648445 -14.90800818 369.69271183 -14.90707779 372.31893921 C-14.90661496 373.61123571 -14.90615214 374.90353222 -14.90567528 376.23498923 C-14.90308043 385.36024936 -14.90746704 394.48549102 -14.91451645 403.61074829 C-14.9229133 414.72499994 -14.92068964 425.839188 -14.90467422 436.95343232 C-14.896767 442.6286572 -14.89374147 448.30377589 -14.90362167 453.97900009 C-14.91251853 459.16769785 -14.90771898 464.35619034 -14.89168902 469.5448693 C-14.88831985 471.42839856 -14.89008272 473.31194492 -14.89731638 475.1954633 C-14.90635567 477.74330742 -14.89716798 480.29043573 -14.88315392 482.83824158 C-14.89017741 483.58033666 -14.89720091 484.32243174 -14.90443724 485.08701456 C-14.87325514 487.89698474 -14.79773949 490.01601948 -13.34426081 492.46369517 C-10.72666193 493.95034524 -8.71634317 493.88406926 -5.71002197 493.88545799 C-4.49367726 493.89328123 -3.27733255 493.90110448 -2.02412891 493.90916479 C-0.66729412 493.90267804 0.68953934 493.89590805 2.04637146 493.8888855 C3.4822567 493.89234013 4.91813929 493.89710337 6.3540163 493.90306723 C10.30926581 493.91563381 14.2642992 493.90938131 18.21954966 493.90010858 C22.48136799 493.89334147 26.74314825 493.90378766 31.00495911 493.91204834 C39.35760912 493.92541295 47.71017842 493.92249582 56.06283164 493.91381042 C62.8490692 493.90704498 69.63528409 493.9061122 76.42152405 493.90938187 C77.38607712 493.90984157 78.35063019 493.91030126 79.34441215 493.91077489 C81.30366636 493.91173404 83.26292057 493.91270667 85.22217476 493.91369267 C103.60938297 493.92225455 121.99654636 493.91239992 140.38374722 493.89629157 C156.17292241 493.88288767 171.96203145 493.88521553 187.75120544 493.89904785 C206.07103026 493.91508958 224.39081577 493.9214305 242.71064663 493.91221106 C244.66283607 493.91125538 246.61502551 493.91031227 248.56721497 493.90938187 C250.00811988 493.90868763 250.00811988 493.90868763 251.47813398 493.90797936 C258.25899688 493.90538525 265.03983492 493.90976953 271.82069397 493.91682053 C280.08032522 493.92522012 288.33987091 493.92298795 296.59949231 493.90697829 C300.81653763 493.89907474 305.0334401 493.89603927 309.25048447 493.90592575 C313.10690346 493.91483028 316.96304648 493.91001047 320.81944025 493.89399309 C322.21844978 493.89062719 323.61748238 493.89237969 325.01647723 493.89962046 C326.91055605 493.90867565 328.80469969 493.89764015 330.69876099 493.88545799 C331.75313701 493.88497094 332.80751303 493.88448388 333.89383984 493.88398206 C336.86547092 493.45427175 337.72057347 492.87453116 339.49436951 490.50793457 C341.12092598 487.25482161 340.63850196 483.6732924 340.63621521 480.09851074 C340.63968964 479.2284288 340.64316406 478.35834686 340.64674377 477.4618988 C340.65410653 475.56849497 340.65944913 473.67508247 340.66303444 471.78166771 C340.67018867 468.78502235 340.68584749 465.78854182 340.70437622 462.79194641 C340.75689437 454.27045963 340.80482824 445.74906212 340.82029724 437.22741699 C340.83037416 432.01836083 340.85969253 426.80971749 340.90161705 421.60082436 C340.91393728 419.61494378 340.91904645 417.62900493 340.91681862 415.64308739 C340.91446782 412.86345702 340.93661538 410.08501223 340.96434021 407.30554199 C340.9577388 406.48509399 340.95113739 405.664646 340.94433594 404.81933594 C341.00824481 400.91715216 341.23772793 398.92958418 343.31265259 395.52058411 C346.33540665 392.73207176 348.4252721 392.50793457 352.49436951 392.50793457 C355.2539531 393.67309209 356.86947409 394.63440452 358.61392212 397.07293701 C359.9438668 400.75108076 359.78051108 404.41778242 359.76902771 408.28039551 C359.77669411 409.60798889 359.77669411 409.60798889 359.78451538 410.96240234 C359.79841769 413.88910686 359.79745363 416.81557595 359.79515076 419.74230957 C359.79903832 421.78009122 359.80337312 423.81787206 359.80813599 425.85565186 C359.8156003 430.12942122 359.8153061 434.403108 359.81004333 438.67687988 C359.80425905 444.14211892 359.82115359 449.60701792 359.84438801 455.07220078 C359.85915491 459.28279585 359.85999283 463.4933097 359.85687828 467.70392609 C359.85739035 469.71806764 359.86260665 471.73221388 359.8726902 473.74633026 C359.88508972 476.57040645 359.87824102 479.393829 359.86668396 482.21789551 C359.8743277 483.04311707 359.88197144 483.86833862 359.8898468 484.71856689 C359.80961313 493.63285647 356.73538953 501.08767753 350.49436951 507.50793457 C342.79135693 513.04607023 335.04093232 513.21764004 325.86175537 513.12939453 C324.39380175 513.13372964 322.92585326 513.14025115 321.45791787 513.1487546 C317.44624645 513.16567551 313.43520331 513.15161483 309.42356527 513.13223982 C305.08884615 513.11676728 300.75420174 513.13022628 296.41947937 513.13998413 C287.93737794 513.15448904 279.45551638 513.14229923 270.9734377 513.12087089 C261.09357785 513.09682946 251.21377259 513.09857713 241.33388998 513.1011768 C223.70658796 513.10486455 206.0793988 513.08406067 188.45213318 513.04992676 C171.34989063 513.01682185 154.2477665 513.0026713 137.14549255 513.00891113 C118.51463765 513.01567525 99.88383229 513.01321544 81.2529847 512.99355173 C79.77528367 512.9919925 79.77528367 512.9919925 78.26773008 512.99040177 C76.28920293 512.9883109 74.31067579 512.98619993 72.33214867 512.9840686 C65.44588823 512.97717438 58.55964307 512.97650344 51.6733799 512.97795105 C43.28336752 512.97939076 34.89345165 512.96969948 26.50347129 512.94600469 C22.22310676 512.93414604 17.94287675 512.92701872 13.66249657 512.93284225 C9.74383946 512.93801617 5.82546649 512.92931864 1.90685799 512.90956765 C0.48982211 512.90483033 -0.92724146 512.90512479 -2.34427317 512.91097802 C-13.28795845 512.95181234 -19.60454796 511.784316 -27.77516174 504.27746582 C-33.29360404 498.63445372 -33.65493787 493.19032523 -33.63705826 485.63266277 C-33.63911089 484.82985544 -33.64116353 484.02704812 -33.64327836 483.19991329 C-33.64896094 480.49297606 -33.64748956 477.78608951 -33.64607239 475.07914734 C-33.6486553 473.125528 -33.65166825 471.17190918 -33.65507579 469.2182911 C-33.66315766 463.83649417 -33.66493602 458.45471057 -33.66567326 453.07290828 C-33.66752173 447.27387754 -33.67506797 441.47485376 -33.68180847 435.67582703 C-33.69540028 422.99004898 -33.7014177 410.30427409 -33.70581913 397.61848998 C-33.70857986 389.70123397 -33.71281688 381.78397919 -33.7173233 373.86672401 C-33.72951659 351.9565892 -33.7398515 330.04645539 -33.74319839 308.13631725 C-33.74342003 306.71940178 -33.74364181 305.30248631 -33.74386375 303.88557084 C-33.74408439 302.46522263 -33.74430487 301.04487442 -33.74452519 299.6245262 C-33.74496775 296.77503407 -33.74541486 293.92554194 -33.74586487 291.0760498 C-33.74597426 290.36954123 -33.74608365 289.66303265 -33.74619636 288.93511472 C-33.74982787 266.02090312 -33.76575174 243.10672315 -33.78905523 220.19252366 C-33.8136441 195.97017851 -33.82737077 171.74785144 -33.82856631 147.52549344 C-33.82948404 134.31986182 -33.83526108 121.11427159 -33.85338593 107.90865135 C-33.86876235 96.66572247 -33.87392189 85.42284778 -33.86564782 74.17991038 C-33.86173273 68.44139445 -33.86271279 62.70298776 -33.87670517 56.96448517 C-33.88939242 51.71333097 -33.88829223 46.46236867 -33.87611446 41.21121494 C-33.87414847 39.30947106 -33.87727723 37.40771382 -33.88595882 35.50598874 C-33.89700153 32.92400158 -33.88959839 30.34269766 -33.87756729 27.76072979 C-33.88516248 27.01980254 -33.89275768 26.27887528 -33.90058303 25.51549569 C-33.83248795 18.76110716 -31.78236472 13.47705558 -27.38063049 8.32043457 C-26.86242737 7.68750488 -26.34422424 7.0545752 -25.81031799 6.40246582 C-18.0189874 -0.00227204 -9.7119344 -0.06673052 0 0 Z " fill="#000000" transform="translate(33.50563049316406,-0.5079345703125)"/>
<path d="M0 0 C6.03119867 4.5983005 9.39626817 10.62167755 10.57421875 18.08203125 C11.04347848 27.59520583 8.30608082 34.49841075 4.05859375 42.81640625 C4.80109375 43.62078125 4.80109375 43.62078125 5.55859375 44.44140625 C7.55407757 47.60092229 7.57766592 49.1119168 7.05859375 52.81640625 C5.86519991 55.69308173 4.32945408 58.32613856 2.74609375 61.00390625 C2.30475098 61.77331543 1.8634082 62.54272461 1.40869141 63.33544922 C-0.02944466 65.83618285 -1.48541568 68.32603304 -2.94140625 70.81640625 C-3.98041741 72.61646614 -5.01816985 74.41725313 -6.0546875 76.21875 C-8.67029697 80.75909276 -11.30053601 85.29071526 -13.94140625 89.81640625 C-11.35144362 91.93467248 -8.91095804 93.83389778 -6.00390625 95.50390625 C-0.46907317 99.68327 3.61258137 105.78407118 4.85546875 112.6875 C5.99132203 124.59211608 0.8785251 132.85498411 -4.94140625 142.81640625 C-5.32474121 143.47850098 -5.70807617 144.1405957 -6.10302734 144.82275391 C-8.06474123 148.2051652 -10.05207473 151.57135407 -12.0546875 154.9296875 C-14.31873463 158.73935878 -16.53242912 162.57598442 -18.734375 166.421875 C-19.06538208 166.99951096 -19.39638916 167.57714691 -19.73742676 168.17228699 C-21.38774213 171.05262083 -23.03462026 173.93477699 -24.67626953 176.82006836 C-33.40373611 192.04757118 -33.40373611 192.04757118 -36.94140625 193.81640625 C-40.92699591 194.19240527 -43.2672025 194.18282133 -46.81640625 192.25390625 C-49.603077 189.05743097 -49.72659687 187.02049331 -49.94140625 182.81640625 C-48.83666992 179.81298828 -48.83666992 179.81298828 -47.109375 176.82421875 C-46.4805542 175.71546387 -45.8517334 174.60670898 -45.20385742 173.46435547 C-44.51267714 172.2897623 -43.82101679 171.11545152 -43.12890625 169.94140625 C-42.42982556 168.72502259 -41.73232542 167.50772924 -41.03637695 166.28955078 C-39.02722284 162.78509181 -36.9862586 159.30015165 -34.94140625 155.81640625 C-33.98246844 154.16571559 -33.02404777 152.51472428 -32.06640625 150.86328125 C-28.81785789 145.29036236 -25.51832532 139.75194103 -22.14453125 134.25390625 C-21.68216064 133.49094238 -21.21979004 132.72797852 -20.7434082 131.94189453 C-19.86396628 130.49142117 -18.9751475 129.04657154 -18.07495117 127.60888672 C-15.51784439 123.37288196 -14.09089707 119.88663658 -13.94140625 114.81640625 C-16.95161693 110.80279201 -20.39715204 108.82433253 -24.94140625 106.81640625 C-25.18503906 107.656875 -25.42867188 108.49734375 -25.6796875 109.36328125 C-27.09021273 113.22366609 -29.00132502 116.57449972 -31.12890625 120.06640625 C-32.0376609 121.58521861 -32.94512977 123.10480077 -33.8515625 124.625 C-34.34672363 125.45370605 -34.84188477 126.28241211 -35.35205078 127.13623047 C-38.30057423 132.10841026 -41.18102509 137.11990862 -44.06640625 142.12890625 C-45.01700928 143.77753662 -45.01700928 143.77753662 -45.98681641 145.45947266 C-51.0207153 154.19820065 -56.02009976 162.95638628 -61.01638794 171.71664429 C-66.19615533 180.79542355 -71.42046655 189.84705856 -76.71850586 198.85742188 C-79.78064996 204.07276515 -82.78742707 209.31186229 -85.7265625 214.59765625 C-92.16345677 226.11320855 -98.50725419 236.61075697 -107.52832031 246.25097656 C-110.03058593 249.02300959 -112.2880169 251.98495347 -114.56640625 254.94140625 C-117.95203298 259.32483193 -121.4352475 263.56798714 -125.06640625 267.75390625 C-129.28602695 272.74499974 -132.64332282 277.96021783 -135.81103516 283.65405273 C-139.53912606 290.25502931 -144.68700537 295.96892314 -152.0078125 298.54296875 C-157.60170398 300.00224479 -162.25582147 299.71888002 -167.94140625 298.81640625 C-168.21831299 299.40647461 -168.49521973 299.99654297 -168.78051758 300.60449219 C-169.87586671 302.69152964 -171.04209708 304.37526395 -172.515625 306.20703125 C-173.01497559 306.83053467 -173.51432617 307.45403809 -174.02880859 308.09643555 C-174.55684082 308.74652588 -175.08487305 309.39661621 -175.62890625 310.06640625 C-176.1698291 310.73518799 -176.71075195 311.40396973 -177.26806641 312.09301758 C-178.82035915 314.00537344 -180.37958187 315.91183212 -181.94140625 317.81640625 C-182.64652344 318.68136719 -183.35164063 319.54632813 -184.078125 320.4375 C-191.5524599 329.32272059 -191.5524599 329.32272059 -197.515625 330.19140625 C-203.88638352 330.46952941 -207.84839356 329.66215052 -212.94140625 325.81640625 C-217.15902942 321.7192866 -219.17945208 316.34594328 -220.94140625 310.81640625 C-220.94140625 309.82640625 -220.94140625 308.83640625 -220.94140625 307.81640625 C-221.60140625 307.81640625 -222.26140625 307.81640625 -222.94140625 307.81640625 C-223.16828125 308.37328125 -223.39515625 308.93015625 -223.62890625 309.50390625 C-226.75498771 315.01176406 -230.92610369 318.01181548 -236.94140625 319.81640625 C-242.97957567 320.07985169 -247.2486897 318.7451922 -251.94140625 314.81640625 C-258.87655246 308.07390299 -258.37197664 297.3942125 -259.00390625 288.31640625 C-259.15740134 286.15986365 -259.31473376 284.0035895 -259.4765625 281.84765625 C-259.54238525 280.90470703 -259.60820801 279.96175781 -259.67602539 278.99023438 C-259.71187863 276.84053109 -259.71187863 276.84053109 -260.94140625 275.81640625 C-261.16833664 276.51940353 -261.39526703 277.22240082 -261.6290741 277.94670105 C-263.77561907 284.58712308 -265.93677215 291.22262992 -268.11422253 297.8529768 C-269.23303719 301.26149628 -270.34622352 304.67163922 -271.4465332 308.08618164 C-272.50960527 311.38445167 -273.58747674 314.67754631 -274.6755619 317.96764565 C-275.28664292 319.82822111 -275.88249474 321.69377621 -276.47807312 323.55937195 C-280.0757379 334.35951692 -280.0757379 334.35951692 -284.94140625 337.81640625 C-289.10386398 338.48537267 -291.14181187 338.2683509 -294.81640625 336.19140625 C-297.49246254 333.20051981 -297.70547925 331.81631141 -297.94140625 327.81640625 C-297.32251298 324.6990249 -296.32016933 321.74245295 -295.29296875 318.73828125 C-294.86116554 317.42349037 -294.86116554 317.42349037 -294.42063904 316.08213806 C-293.4828701 313.23881988 -292.52570296 310.40252686 -291.56640625 307.56640625 C-290.91519967 305.61718862 -290.2647301 303.66772461 -289.61499023 301.71801758 C-288.3262609 297.85787171 -287.02916054 294.0006703 -285.72705078 290.14501953 C-284.40372431 286.21542434 -283.11490687 282.27694516 -281.86010742 278.32498169 C-280.92354833 275.37958953 -279.96126469 272.44259176 -279.00390625 269.50390625 C-278.53041748 267.9710498 -278.53041748 267.9710498 -278.04736328 266.40722656 C-275.59813311 259.08103163 -272.18965999 255.15294581 -265.44140625 251.44140625 C-259.50340167 249.9569051 -255.05401264 250.62182126 -249.80078125 253.57421875 C-245.89498007 256.18355651 -243.62782056 258.57068081 -242.265625 263.02734375 C-240.14037305 274.09163252 -239.78775252 285.5989165 -238.94140625 296.81640625 C-238.16925781 296.03910156 -237.39710938 295.26179688 -236.6015625 294.4609375 C-231.85360689 289.74087003 -228.71440986 287.55919624 -221.94140625 287.31640625 C-216.82319396 287.50010446 -213.80082881 288.24644038 -209.94140625 291.81640625 C-206.70319844 295.49501032 -204.67848656 299.15797554 -202.69140625 303.62890625 C-201.91023438 305.37107422 -201.91023438 305.37107422 -201.11328125 307.1484375 C-200.7265625 308.02886719 -200.33984375 308.90929687 -199.94140625 309.81640625 C-199.46832031 309.22214844 -198.99523437 308.62789063 -198.5078125 308.015625 C-197.84652344 307.18675781 -197.18523437 306.35789062 -196.50390625 305.50390625 C-195.43076172 304.13105469 -195.43076172 304.13105469 -194.3359375 302.73046875 C-191.94140625 299.81640625 -191.94140625 299.81640625 -189.265625 297.08984375 C-186.72253219 294.41168531 -184.64975862 292.09571 -182.94140625 288.81640625 C-183.30921343 285.57261282 -184.29533424 283.30018029 -185.72265625 280.375 C-188.53901186 274.46245859 -186.88332214 269.07404861 -184.85079956 263.1524353 C-183.48433953 259.64230355 -181.66160031 256.47046505 -179.7890625 253.2109375 C-174.57521675 243.73932986 -171.07423942 233.79159634 -167.48526001 223.61968994 C-160.82103643 204.85148043 -153.49696951 187.76562522 -142.86621094 170.90820312 C-139.55480828 165.5891261 -136.48457927 160.1322022 -133.37890625 154.69140625 C-132.14063755 152.54481403 -130.90106001 150.39897627 -129.66015625 148.25390625 C-127.15711135 143.92232118 -124.65718852 139.58896022 -122.16015625 135.25390625 C-115.48497092 123.66745804 -108.77945024 112.09980058 -102.03051758 100.55615234 C-96.26512211 90.68230283 -90.59216061 80.7562118 -84.94140625 70.81640625 C-85.7096875 70.52765625 -86.47796875 70.23890625 -87.26953125 69.94140625 C-90.92484084 68.40232853 -94.13312464 66.43296948 -95.94140625 62.81640625 C-96.35454881 58.16855245 -95.73127941 55.57200473 -92.94140625 51.81640625 C-89.81284149 50.25212387 -87.41428494 50.53633539 -83.94140625 50.81640625 C-81.14312993 51.93474007 -78.5441438 53.30208622 -75.94140625 54.81640625 C-72.09479814 48.65718481 -68.31045754 42.4709481 -64.65625 36.1953125 C-64.08479248 35.21643066 -63.51333496 34.23754883 -62.92456055 33.22900391 C-61.78150299 31.2668544 -60.64352287 29.30173699 -59.51098633 27.33349609 C-58.97755615 26.41906738 -58.44412598 25.50463867 -57.89453125 24.5625 C-57.42176758 23.74450928 -56.94900391 22.92651855 -56.46191406 22.08374023 C-53.80163403 18.11681334 -52.05434254 16.06585749 -47.31640625 15.00390625 C-43.94140625 14.81640625 -43.94140625 14.81640625 -41.94140625 15.81640625 C-41.63203125 14.82640625 -41.63203125 14.82640625 -41.31640625 13.81640625 C-37.75345985 6.04270501 -32.50814084 0.79238133 -24.94140625 -3.18359375 C-16.62461862 -5.89024061 -7.38913556 -4.50484522 0 0 Z M-20.69140625 15.44140625 C-23.8172356 18.74089278 -25.94140625 21.17435193 -25.94140625 25.81640625 C-24.20018076 26.85213521 -22.4480403 27.86953145 -20.69140625 28.87890625 C-19.22960937 29.73162109 -19.22960937 29.73162109 -17.73828125 30.6015625 C-15.10382155 31.99958602 -15.10382155 31.99958602 -12.69140625 31.66796875 C-9.68738797 30.206192 -9.08175163 27.83832152 -7.94140625 24.81640625 C-7.541304 21.48222084 -7.60279342 19.55338713 -9.00390625 16.50390625 C-12.73285958 13.25610819 -16.48496523 12.95578201 -20.69140625 15.44140625 Z M-43.94140625 36.81640625 C-44.21815186 37.31978516 -44.49489746 37.82316406 -44.7800293 38.34179688 C-46.06064726 40.66796411 -47.3447568 42.99218682 -48.62890625 45.31640625 C-49.28149414 46.50363281 -49.28149414 46.50363281 -49.94726562 47.71484375 C-52.48358586 52.29900773 -55.12040228 56.75190467 -58.03442383 61.10742188 C-59.17579932 62.93560432 -59.17579932 62.93560432 -58.94140625 65.81640625 C-55.45769141 67.79800729 -51.97048951 69.77330992 -48.47998047 71.74291992 C-47.29379076 72.41341017 -46.10855674 73.08559417 -44.92431641 73.75952148 C-43.21901447 74.72958199 -41.50993773 75.69299707 -39.80078125 76.65625 C-38.77436523 77.23753662 -37.74794922 77.81882324 -36.69042969 78.41772461 C-34.37717104 79.59469253 -32.47421734 80.34746528 -29.94140625 80.81640625 C-29.52628784 80.06133789 -29.52628784 80.06133789 -29.1027832 79.29101562 C-27.82216524 76.96484839 -26.5380557 74.64062568 -25.25390625 72.31640625 C-24.81884766 71.52492187 -24.38378906 70.7334375 -23.93554688 69.91796875 C-21.39922664 65.33380477 -18.76241022 60.88090783 -15.84838867 56.52539062 C-14.70701318 54.69720818 -14.70701318 54.69720818 -14.94140625 51.81640625 C-15.44478516 51.53966064 -15.94816406 51.26291504 -16.46679688 50.9777832 C-18.79296411 49.69716524 -21.11718682 48.4130557 -23.44140625 47.12890625 C-24.23289062 46.69384766 -25.024375 46.25878906 -25.83984375 45.81054688 C-30.42400773 43.27422664 -34.87690467 40.63741022 -39.23242188 37.72338867 C-41.06060432 36.58201318 -41.06060432 36.58201318 -43.94140625 36.81640625 Z M-68.94140625 80.81640625 C-70.31707064 82.68724175 -70.31707064 82.68724175 -71.671875 85.15234375 C-72.219646 86.10093262 -72.76741699 87.04952148 -73.33178711 88.02685547 C-74.22136108 89.59330811 -74.22136108 89.59330811 -75.12890625 91.19140625 C-75.74967041 92.2705127 -76.37043457 93.34961914 -77.01000977 94.46142578 C-78.3281107 96.75384709 -79.64360653 99.04755072 -80.95507812 101.34375 C-83.4627979 105.73241263 -85.99463894 110.10707597 -88.5246582 114.48291016 C-91.03743796 118.83089589 -93.54366852 123.18264346 -96.05029297 127.53417969 C-99.17820774 132.96300569 -102.31001392 138.38958566 -105.44140625 143.81640625 C-106.68230099 145.96744254 -107.92318639 148.11848422 -109.1640625 150.26953125 C-111.41988379 154.17969996 -113.67624003 158.0895589 -115.93333435 161.99899292 C-125.97342433 179.38700698 -125.97342433 179.38700698 -135.94140625 196.81640625 C-133.07904451 199.90617931 -130.25410721 201.98721233 -126.58984375 204.05078125 C-125.5740625 204.62441406 -124.55828125 205.19804687 -123.51171875 205.7890625 C-122.45726562 206.37558594 -121.4028125 206.96210938 -120.31640625 207.56640625 C-118.723125 208.46939453 -118.723125 208.46939453 -117.09765625 209.390625 C-112.29224734 212.50052373 -112.29224734 212.50052373 -106.94140625 213.81640625 C-106.53003418 213.09388672 -106.11866211 212.37136719 -105.69482422 211.62695312 C-98.49730767 198.99188942 -91.28967134 186.36462062 -83.94140625 173.81640625 C-78.88506835 165.18144772 -73.89531211 156.51035585 -68.94140625 147.81640625 C-62.22769005 136.03504263 -55.427175 124.30615592 -48.57373047 112.60546875 C-45.69054765 107.67913305 -42.81630902 102.74757718 -39.94140625 97.81640625 C-45.01414839 93.61961116 -50.46492846 90.39385608 -56.12890625 87.06640625 C-57.64387695 86.16341797 -57.64387695 86.16341797 -59.18945312 85.2421875 C-60.63481445 84.38947266 -60.63481445 84.38947266 -62.109375 83.51953125 C-62.98875732 83.00036133 -63.86813965 82.48119141 -64.77416992 81.94628906 C-66.82963462 80.66230862 -66.82963462 80.66230862 -68.94140625 80.81640625 Z M-143.94140625 214.81640625 C-146.84460954 221.59911129 -149.61641959 228.42638716 -152.25390625 235.31640625 C-152.52025879 235.99832031 -152.78661133 236.68023437 -153.06103516 237.3828125 C-154.34910021 240.78607827 -154.94140625 243.12180184 -154.94140625 246.81640625 C-152.70187569 248.21162181 -150.45254015 249.58203409 -148.19140625 250.94140625 C-147.5571875 251.33972656 -146.92296875 251.73804688 -146.26953125 252.1484375 C-142.74199067 254.35613615 -142.74199067 254.35613615 -138.74609375 254.36328125 C-136.46033199 252.40405689 -134.67796581 250.31128835 -132.81640625 247.94140625 C-131.65431641 246.48154297 -131.65431641 246.48154297 -130.46875 244.9921875 C-129.85749268 244.2199585 -129.85749268 244.2199585 -129.23388672 243.43212891 C-126.99154957 240.62899569 -124.68326546 237.88108285 -122.37890625 235.12890625 C-121.52338234 234.10421271 -120.66790864 233.07947726 -119.8125 232.0546875 C-119.19503906 231.31605469 -118.57757813 230.57742188 -117.94140625 229.81640625 C-122.29160107 226.03860549 -127.03850948 223.37689798 -132.06640625 220.62890625 C-132.87722656 220.17837891 -133.68804687 219.72785156 -134.5234375 219.26367188 C-137.65487118 217.53750141 -140.54083917 215.94992861 -143.94140625 214.81640625 Z M-162.94140625 262.81640625 C-166.06999062 266.65240938 -167.94140625 269.60866019 -167.94140625 274.62890625 C-166.80136657 278.40524601 -166.80136657 278.40524601 -163.94140625 280.81640625 C-160.82100204 281.96602885 -159.47115982 282.03606017 -156.37890625 280.75390625 C-153.44603997 278.42265357 -151.7734635 276.07339692 -149.94140625 272.81640625 C-149.94140625 271.82640625 -149.94140625 270.83640625 -149.94140625 269.81640625 C-152.59196615 267.8812454 -152.59196615 267.8812454 -155.87890625 266.12890625 C-156.98105469 265.50628906 -158.08320313 264.88367188 -159.21875 264.2421875 C-161.57682192 262.73908758 -161.57682192 262.73908758 -162.94140625 262.81640625 Z " fill="#000000" transform="translate(501.94140625,106.18359375)"/>
<path d="M0 0 C0.93416894 -0.00523668 1.86833787 -0.01047336 2.83081496 -0.01586872 C5.97454321 -0.03092212 9.11810946 -0.03157505 12.26187134 -0.03224182 C14.51033301 -0.03985968 16.75879208 -0.04828653 19.00724792 -0.0574646 C25.12498447 -0.07945255 31.24267103 -0.08821421 37.36044264 -0.09329104 C41.17989289 -0.09692937 44.99932994 -0.10316666 48.81877518 -0.11029243 C59.3925701 -0.12975245 69.96635407 -0.14626289 80.54016685 -0.14916897 C81.55524656 -0.14945032 81.55524656 -0.14945032 82.59083293 -0.14973736 C83.96272159 -0.15010361 85.33461025 -0.15046731 86.70649891 -0.15082847 C87.38751107 -0.15101128 88.06852323 -0.1511941 88.77017212 -0.15138245 C89.45201485 -0.151563 90.13385757 -0.15174354 90.8363622 -0.15192956 C101.88740806 -0.15547205 112.93825917 -0.18249889 123.98923747 -0.21988034 C135.33356825 -0.25794723 146.67777085 -0.27688507 158.02217829 -0.27762848 C164.39233384 -0.27842293 170.76223817 -0.28723882 177.13233566 -0.31562614 C183.12255643 -0.34172278 189.11231621 -0.3440588 195.10256767 -0.3279705 C197.30323348 -0.32614935 199.50392529 -0.33290637 201.70453453 -0.34878922 C204.7050229 -0.36912777 207.70387975 -0.35876951 210.7043457 -0.34057617 C211.5787623 -0.35377614 212.45317889 -0.36697611 213.35409296 -0.38057607 C217.69929291 -0.3202426 219.46027754 -0.12118796 223.02367592 2.59382534 C224.97915649 5.27415466 224.97915649 5.27415466 225.54165649 8.77415466 C224.89503998 12.79754629 223.87897324 14.45718983 220.97915649 17.27415466 C217.11833314 18.56109578 213.4789713 18.40856428 209.4561615 18.39440918 C208.57563447 18.3952636 207.69510743 18.39611803 206.78789777 18.39699835 C203.82599546 18.39865054 200.86414931 18.393136 197.9022522 18.38768005 C195.78361004 18.3873981 193.66496778 18.38755608 191.54632568 18.38812256 C185.78428189 18.38841021 180.02225879 18.38251862 174.26021981 18.3755486 C168.24239471 18.36930977 162.22456917 18.36871084 156.20674133 18.36752319 C144.80643678 18.36441145 133.40614178 18.35620015 122.00584143 18.3461737 C109.02899464 18.33500772 96.0521474 18.32950089 83.075297 18.32447827 C56.37657819 18.31401742 29.67786788 18.29642099 2.97915649 18.27415466 C2.97915649 23.55415466 2.97915649 28.83415466 2.97915649 34.27415466 C4.643435 34.27138928 4.643435 34.27138928 6.3413353 34.26856804 C33.31442096 34.22420683 60.28750189 34.19132116 87.2606163 34.17053032 C100.30450485 34.16020929 113.34836933 34.14613318 126.39224243 34.12327576 C137.75872318 34.10336718 149.1251865 34.09044424 160.4916842 34.08597767 C166.51245038 34.083366 172.5331667 34.07721028 178.55391693 34.06269455 C184.21730125 34.04915064 189.880615 34.04492555 195.54401398 34.0479393 C197.62576175 34.04738771 199.70751181 34.04339133 201.78924561 34.03574371 C204.62556563 34.02583244 207.46161722 34.02817183 210.29794312 34.03364563 C211.12673658 34.02781995 211.95553005 34.02199426 212.80943847 34.01599205 C219.98211997 34.05355537 219.98211997 34.05355537 222.97915649 36.27415466 C225.42436764 39.94197138 225.70153408 43.00868699 224.97915649 47.27415466 C223.10900555 49.70535089 221.69777304 50.91484639 218.97915649 52.27415466 C216.02996768 52.3767698 213.10413827 52.4175208 210.15449524 52.41459656 C208.76677413 52.41905324 208.76677413 52.41905324 207.35101825 52.42359996 C204.23185676 52.43231431 201.11273352 52.43379751 197.99356079 52.43528748 C195.76495277 52.43991371 193.53634555 52.44493811 191.30773926 52.45033264 C185.23953398 52.46347732 179.17133977 52.46990562 173.10312247 52.4743433 C169.31500648 52.47727067 165.52689353 52.48137483 161.73877907 52.48584747 C151.25338113 52.49795934 140.767985 52.50834039 130.28258038 52.51172256 C129.61126067 52.51194213 128.93994097 52.5121617 128.24827825 52.51238792 C127.2388687 52.51271533 127.2388687 52.51271533 126.20906705 52.51304936 C124.8454022 52.51349283 123.48173735 52.5139394 122.11807251 52.51438904 C121.44164551 52.51461047 120.76521851 52.5148319 120.06829373 52.51506004 C109.10777238 52.51900803 98.14731751 52.53646144 87.18682184 52.55974856 C75.93745984 52.58345674 64.68813005 52.59566614 53.43873912 52.59709048 C47.1211707 52.59814033 40.80369601 52.6040863 34.48615074 52.6219101 C28.54446242 52.63834678 22.60293872 52.64056769 16.66123581 52.63177109 C14.4783147 52.63099835 12.29538489 52.6353744 10.11248589 52.64522934 C7.1363822 52.65787908 4.16086772 52.65210992 1.18476868 52.64164734 C-0.11620655 52.65373195 -0.11620655 52.65373195 -1.4434641 52.66606069 C-6.1224957 52.62749169 -9.22627222 52.32449249 -13.02084351 49.27415466 C-15.52583999 45.08765742 -15.32725947 40.61501423 -15.32162476 35.86790466 C-15.32590988 35.06558411 -15.33019501 34.26326355 -15.33460999 33.43663025 C-15.34033571 31.74559978 -15.34086654 30.0545447 -15.33651733 28.36351013 C-15.33335375 25.7825156 -15.35684987 23.20266423 -15.38217163 20.62181091 C-15.38444452 18.97467694 -15.38514817 17.32753989 -15.38412476 15.68040466 C-15.3933345 14.91256653 -15.40254425 14.14472839 -15.41203308 13.35362244 C-15.37297164 8.8117584 -14.86634637 5.86285164 -12.02084351 2.27415466 C-8.04948605 -0.37341697 -4.6107968 -0.01267009 0 0 Z " fill="#000000" transform="translate(91.02084350585938,50.72584533691406)"/>
<path d="M0 0 C2.61941426 2.54665275 3.16196405 3.39517642 3.5625 7 C3.17835642 10.9182645 1.95743683 12.40043267 -0.75 15.1875 C-3.75950175 16.69225088 -5.35858868 16.61142641 -8.75 16.1875 C-10.26074001 15.3460037 -11.73686955 14.44134089 -13.1875 13.5 C-25.9953659 5.37230164 -40.64336158 2.70723862 -55.5234375 5.40625 C-68.57323818 8.56600803 -81.10424441 15.92972079 -88.75 27.1875 C-94.48466035 37.2026328 -98.15024998 46.27263633 -98.125 57.875 C-98.12338867 58.65665527 -98.12177734 59.43831055 -98.12011719 60.24365234 C-97.97142121 67.36502339 -96.44710663 73.58520774 -93.75 80.1875 C-93.316875 81.28771484 -93.316875 81.28771484 -92.875 82.41015625 C-87.51656421 94.44271518 -77.47842889 103.21304559 -65.64453125 108.6015625 C-51.52194023 113.89991649 -35.68614759 114.25160746 -21.75 108.1875 C-7.9145862 101.42974008 1.91926417 90.68281671 7.421875 76.2734375 C8.78260085 71.20280817 9.44551414 65.99987354 10.03613281 60.78710938 C10.51908792 57.01239359 10.81888131 54.7532333 13.1640625 51.67578125 C15.96001636 49.6809153 17.81528497 49.2561943 21.25 49.1875 C24.70725562 50.38424233 26.67695204 51.11894522 28.43359375 54.39453125 C32.34944362 67.79085976 25.67814812 83.70041416 19.41796875 95.41796875 C10.46966852 111.40533277 -4.41038659 123.15238967 -21.8125 128.625 C-41.45086558 134.14751643 -62.4560141 132.44402949 -80.37524414 122.52441406 C-98.20887793 112.04101715 -110.11780898 95.96864336 -115.6875 76.125 C-119.72271644 55.67149669 -116.3563928 36.06003103 -105.75 18.1875 C-94.4851379 1.51269374 -78.12907788 -8.95983772 -58.7109375 -13.52734375 C-38.46498696 -17.37055769 -16.2284829 -13.02904328 0 0 Z " fill="#000000" transform="translate(150.75,346.8125)"/>
<path d="M0 0 C0.8009717 -0.00623996 1.6019434 -0.01247993 2.42718697 -0.01890898 C5.11435401 -0.03487926 7.80061901 -0.02221926 10.48779297 -0.00964355 C12.41290822 -0.01506289 14.33801933 -0.02218448 16.26312256 -0.03088379 C21.49449553 -0.04914248 26.72555349 -0.04203906 31.95693207 -0.02936745 C37.42702596 -0.01925299 42.89709257 -0.0286288 48.3671875 -0.03491211 C57.55392305 -0.04219304 66.74053005 -0.03258908 75.92724609 -0.0135498 C86.5541953 0.00821974 97.18083755 0.00116869 107.80777931 -0.02085543 C116.92549584 -0.03899669 126.04311987 -0.04157397 135.16084862 -0.03110075 C140.60925708 -0.02485883 146.05752118 -0.02404942 151.50592041 -0.0372467 C156.6277735 -0.04878601 161.74923016 -0.04081451 166.87104034 -0.01766968 C168.7528238 -0.01237233 170.63464052 -0.01391384 172.51641083 -0.02272034 C175.08138071 -0.03361908 177.64507292 -0.01998174 180.20996094 0 C181.33232997 -0.01338433 181.33232997 -0.01338433 182.47737312 -0.02703905 C185.90850473 0.02496308 187.77329634 0.25563991 190.53982544 2.35999298 C192.5988844 5.18574398 193.03505872 7.01184738 193.10498047 10.50793457 C191.98918353 13.56169461 191.17005241 15.75274247 188.4752264 17.66351604 C185.12348698 18.85759925 181.8816783 18.78676932 178.36854553 18.76863098 C177.58461361 18.77245653 176.80068169 18.77628208 175.99299425 18.78022355 C173.36366968 18.7905502 170.73456362 18.78656206 168.10522461 18.78259277 C166.22114357 18.78693943 164.3370643 18.79212242 162.45298767 18.79808044 C157.33319751 18.8114865 152.2134811 18.81204734 147.09367681 18.80951715 C142.82166206 18.80844855 138.54966231 18.81332791 134.27765077 18.81812257 C124.20063276 18.82922324 114.12365203 18.82965196 104.04663086 18.8236084 C93.64583241 18.81756665 83.24516917 18.82988348 72.84439379 18.85117847 C63.91861007 18.86878251 54.99286944 18.87479773 46.06706899 18.87154073 C40.73433758 18.86972586 35.40170262 18.87238429 30.06898689 18.88625526 C25.05472728 18.89880954 20.04067878 18.89691225 15.0264225 18.88384438 C13.18536559 18.88147383 11.34429394 18.88423033 9.50325394 18.8924675 C6.99138918 18.90289633 4.48023789 18.89486569 1.96839905 18.88215637 C0.87374497 18.8932178 0.87374497 18.8932178 -0.24302334 18.90450269 C-4.63530128 18.85769932 -7.38139524 18.16853568 -10.89501953 15.50793457 C-12.99603548 12.83391427 -12.89348929 11.46508772 -12.77001953 8.00793457 C-10.9485966 0.72224283 -6.90599631 -0.0823545 0 0 Z " fill="#000000" transform="translate(148.89501953125,178.4920654296875)"/>
<path d="M0 0 C0.72182421 -0.00453111 1.44364843 -0.00906223 2.1873461 -0.01373065 C4.6124803 -0.02641775 7.03739116 -0.02475152 9.46255493 -0.02310181 C11.19870799 -0.02908438 12.93485838 -0.0358893 14.67100525 -0.04345703 C19.39210131 -0.06115202 24.11312491 -0.06581389 28.83425093 -0.0670886 C32.77318326 -0.06898592 36.71209864 -0.07634155 40.65102446 -0.08343279 C49.94319046 -0.09972771 59.23531769 -0.10460075 68.52749634 -0.10317993 C78.117726 -0.10197825 87.7077307 -0.12308283 97.29790342 -0.15466726 C105.52728409 -0.18080575 113.75659118 -0.19154825 121.98601305 -0.19026911 C126.90297066 -0.18975876 131.81972842 -0.19548247 136.73664474 -0.21662521 C141.36107698 -0.23596673 145.98511792 -0.23616018 150.60956383 -0.22159195 C152.30710737 -0.21949765 154.00467514 -0.22424165 155.70217705 -0.23631287 C158.01944262 -0.25172433 160.33535203 -0.24248582 162.65258789 -0.22705078 C164.59771806 -0.22868508 164.59771806 -0.22868508 166.58214378 -0.2303524 C170.54515216 0.35482109 172.19293406 1.40520823 174.95327759 4.26742554 C176.10216276 8.21671833 176.38457155 10.29701413 174.70327759 14.07992554 C172.95327759 16.26742554 172.95327759 16.26742554 169.95327759 18.26742554 C166.83382607 18.52469444 166.83382607 18.52469444 162.90655518 18.53485107 C161.82381886 18.54164774 161.82381886 18.54164774 160.71920907 18.54858172 C158.29407488 18.56126883 155.86916401 18.5596026 153.44400024 18.55795288 C151.70784719 18.56393545 149.9716968 18.57074037 148.23554993 18.57830811 C143.51445387 18.59600309 138.79343026 18.60066496 134.07230425 18.60193968 C130.13337192 18.603837 126.19445653 18.61119262 122.25553071 18.61828387 C112.96336472 18.63457878 103.67123748 18.63945182 94.37905884 18.63803101 C84.78882918 18.63682932 75.19882448 18.65793391 65.60865176 18.68951833 C57.37927109 18.71565682 49.149964 18.72639932 40.92054212 18.72512019 C36.00358452 18.72460983 31.08682675 18.73033354 26.16991043 18.75147629 C21.54547819 18.7708178 16.92143726 18.77101126 12.29699135 18.75644302 C10.59944781 18.75434872 8.90188004 18.75909272 7.20437813 18.77116394 C4.88711255 18.7865754 2.57120315 18.77733689 0.25396729 18.76190186 C-1.69116288 18.76353616 -1.69116288 18.76353616 -3.67558861 18.76520348 C-7.63859699 18.18002998 -9.28637888 17.12964285 -12.04672241 14.26742554 C-13.19560759 10.31813275 -13.47801637 8.23783695 -11.79672241 4.45492554 C-8.23669348 0.00488937 -5.43618512 0.01405896 0 0 Z " fill="#000000" transform="translate(72.04672241210938,229.73257446289063)"/>
<path d="M0 0 C0.71688624 -0.00297112 1.43377247 -0.00594224 2.17238253 -0.0090034 C4.58675037 -0.01771013 7.00106874 -0.01920031 9.41545105 -0.02069092 C11.14160265 -0.02531771 12.86775322 -0.03034219 14.59390259 -0.03573608 C19.29231675 -0.04887583 23.99071661 -0.05530816 28.68914628 -0.05974674 C31.62296317 -0.06267506 34.55677613 -0.06677941 37.49059105 -0.07125092 C46.66521621 -0.08493027 55.83983241 -0.09459466 65.01446706 -0.09845281 C75.61367821 -0.10293417 86.21276044 -0.12048389 96.81193238 -0.1494534 C104.99882231 -0.17105471 113.18567593 -0.18115626 121.37259406 -0.18249393 C126.26494432 -0.18354311 131.15717347 -0.18947489 136.04949379 -0.20731354 C140.65169049 -0.22376732 145.25367468 -0.22596285 149.85589027 -0.21717453 C151.54537016 -0.2164027 153.23486134 -0.2207661 154.92431259 -0.23063278 C157.23047632 -0.24331155 159.53588281 -0.23749814 161.84204102 -0.22705078 C163.13271894 -0.22851734 164.42339685 -0.2299839 165.75318623 -0.2314949 C169.38489834 0.17072153 171.25555815 0.89235424 174.11149597 3.14044189 C175.97018511 7.24504708 176.45786698 9.17424907 174.92399597 13.45294189 C173.11149597 16.14044189 173.11149597 16.14044189 170.11149597 18.14044189 C166.98925114 18.39212418 166.98925114 18.39212418 163.05804443 18.39440918 C161.97424976 18.39908915 161.97424976 18.39908915 160.86856025 18.40386367 C158.44107433 18.41185779 156.0138374 18.40551457 153.58634949 18.39923096 C151.84857537 18.40194022 150.1108024 18.40550078 148.37303162 18.40985107 C143.64785625 18.41898576 138.922768 18.4154262 134.19759107 18.4090929 C129.25734547 18.40403769 124.31710745 18.4087231 119.37686157 18.41186523 C111.07867592 18.41550662 102.78052584 18.41070162 94.48234558 18.40118408 C84.88420845 18.39030279 75.28615631 18.39382206 65.68802124 18.40483689 C57.45356409 18.41390914 49.21913254 18.41519524 40.98467201 18.40995955 C36.06390009 18.40683905 31.14316812 18.40643265 26.22239876 18.41303253 C21.59559268 18.41880431 16.96889627 18.41481214 12.34210205 18.40324402 C10.64253357 18.40059639 8.94295587 18.40136428 7.24339104 18.40576935 C4.92611256 18.41122227 2.60918705 18.40439385 0.29193115 18.39440918 C-1.00574409 18.39365513 -2.30341932 18.39290108 -3.64041805 18.39212418 C-6.69452024 18.15547299 -8.37467441 17.82754505 -10.88850403 16.14044189 C-13.19059893 12.91750904 -13.36361057 10.02047865 -12.88850403 6.14044189 C-9.03411023 0.35885119 -6.75129365 0.01557355 0 0 Z " fill="#000000" transform="translate(114.88850402832031,118.85955810546875)"/>
<path d="M0 0 C0.91099457 -0.00700928 1.82198914 -0.01401855 2.7605896 -0.02124023 C5.77169278 -0.0388444 8.78185602 -0.02718876 11.79296875 -0.01367188 C13.88517436 -0.01636609 15.97737876 -0.02024792 18.06958008 -0.02526855 C22.45438559 -0.03116689 26.83886518 -0.02258967 31.22363281 -0.00390625 C36.84633833 0.01888328 42.46828015 0.00576202 48.09095764 -0.01819611 C52.41123212 -0.03264489 56.73132531 -0.02805227 61.05160522 -0.01768494 C63.12486867 -0.01501512 65.19814854 -0.01829635 67.27139282 -0.02760315 C70.16835171 -0.03775342 73.06407103 -0.02228876 75.9609375 0 C76.81924164 -0.00809692 77.67754578 -0.01619385 78.56185913 -0.02453613 C84.36750334 0.05828649 84.36750334 0.05828649 87.48950195 2.39758301 C89.25172935 4.90328165 89.83110185 6.45555658 89.98046875 9.51757812 C88.99796737 12.95633295 87.78493231 15.27400728 84.98046875 17.51757812 C81.18222368 18.78365982 77.61484103 18.67319881 73.65698242 18.67871094 C72.80786789 18.68367584 71.95875336 18.68864075 71.08390808 18.6937561 C68.27207633 18.70837266 65.46030101 18.71517906 62.6484375 18.72070312 C60.69411721 18.72645521 58.73979694 18.73221294 56.78547668 18.73797607 C52.68567644 18.74848477 48.5858958 18.75432823 44.48608398 18.7578125 C39.23699106 18.76329543 33.98815777 18.78731977 28.73914623 18.81578445 C24.70106758 18.83442411 20.66305128 18.83961716 16.62493324 18.84114838 C14.69007257 18.84417268 12.75521294 18.8521937 10.82039452 18.86533356 C8.11077603 18.88242093 5.40178944 18.88050719 2.69213867 18.87402344 C1.89555847 18.88323822 1.09897827 18.892453 0.27825928 18.90194702 C-4.54135543 18.86588753 -7.84177718 18.18021294 -12.01953125 15.51757812 C-13.84031849 12.58848561 -14.03510578 10.89915414 -13.89453125 7.45507812 C-11.65209403 -0.07310398 -6.87526604 -0.06485872 0 0 Z " fill="#000000" transform="translate(73.01953125,272.482421875)"/>
<path d="M0 0 C2.9375 2.0625 2.9375 2.0625 5 5 C5.67686785 9.13641464 5.46864659 11.19974688 3.34521484 14.82568359 C0.76953159 18.31194568 -2.01651189 21.30468434 -5.0859375 24.3515625 C-5.66534088 24.93287933 -6.24474426 25.51419617 -6.84170532 26.11312866 C-8.06128509 27.33406218 -9.28336515 28.55250281 -10.5078125 29.76855469 C-12.36953353 31.61956498 -14.22034026 33.48100577 -16.0703125 35.34375 C-17.26238015 36.53449591 -18.45506812 37.72462119 -19.6484375 38.9140625 C-20.19551361 39.46518707 -20.74258972 40.01631165 -21.3062439 40.58413696 C-26.49795378 45.71376332 -31.60665254 50.05756885 -39.1875 50.3125 C-39.90292969 50.34988281 -40.61835937 50.38726562 -41.35546875 50.42578125 C-49.9957466 49.03465823 -55.46354705 43.1241746 -61.3125 37.125 C-62.10978516 36.33480469 -62.90707031 35.54460937 -63.72851562 34.73046875 C-67.61928486 30.79715957 -71.07581843 27.2993853 -73 22 C-72.9270066 18.3503299 -72.45383365 16.59970875 -70.25 13.6875 C-67.67504716 11.75628537 -66.20848406 11.15651142 -63 11 C-58.91217108 12.25863093 -56.54656099 14.09631899 -53.57421875 17.1328125 C-52.77822266 17.93847656 -51.98222656 18.74414062 -51.16210938 19.57421875 C-50.34548828 20.41597656 -49.52886719 21.25773437 -48.6875 22.125 C-47.85154297 22.97449219 -47.01558594 23.82398438 -46.15429688 24.69921875 C-44.0959305 26.79287141 -42.04490197 28.89320824 -40 31 C-33.10168795 25.36489817 -26.9379946 19.01613741 -20.6875 12.6875 C-18.52760812 10.50104041 -16.36443282 8.31790646 -14.19921875 6.13671875 C-13.46018562 5.38523811 -13.46018562 5.38523811 -12.70622253 4.61857605 C-8.4328315 0.31434751 -6.1822147 -0.6286998 0 0 Z " fill="#000000" transform="translate(144,380)"/>
<path d="M0 0 C1.95762016 -0.01925285 1.95762016 -0.01925285 3.95478821 -0.03889465 C5.38676576 -0.04706218 6.8187476 -0.05450588 8.25073242 -0.0612793 C8.97080664 -0.06535482 9.69088085 -0.06943035 10.4327755 -0.07362938 C14.24456877 -0.09449113 18.05632604 -0.10879195 21.86816406 -0.11816406 C25.80258956 -0.12922466 29.73644888 -0.16361938 33.67067432 -0.20333576 C36.69818665 -0.22950075 39.7255641 -0.23785577 42.75317955 -0.24144554 C44.20324207 -0.24631243 45.65329852 -0.2579295 47.1032505 -0.27648354 C49.13510106 -0.30086601 51.16722694 -0.29749105 53.19921875 -0.29296875 C54.93223991 -0.30176811 54.93223991 -0.30176811 56.70027161 -0.31074524 C60.48306979 0.28569607 62.12767852 1.46743001 64.79370117 4.17700195 C65.94258635 8.12629474 66.22499513 10.20659054 64.54370117 13.98950195 C62.79370117 16.17700195 62.79370117 16.17700195 59.79370117 18.17700195 C56.96096802 18.44442749 56.96096802 18.44442749 53.47387695 18.4675293 C52.16887238 18.480289 50.8638678 18.49304871 49.51931763 18.50619507 C48.09255115 18.50925268 46.66578268 18.51148046 45.23901367 18.51293945 C43.77554188 18.51936685 42.31207138 18.52609517 40.84860229 18.53311157 C37.78030418 18.545088 34.71211867 18.54879207 31.64379883 18.54760742 C27.71720587 18.5474043 23.79133722 18.574697 19.86491585 18.60915184 C16.84167177 18.63142049 13.81860196 18.63544498 10.79528427 18.63438797 C9.34802633 18.63674435 7.90076362 18.64557013 6.45358658 18.6610527 C4.42659106 18.68070641 2.39938293 18.67235373 0.37231445 18.6628418 C-0.78001678 18.66569183 -1.93234802 18.66854187 -3.11959839 18.67147827 C-6.86362106 18.07170172 -8.51636174 16.79604177 -11.20629883 14.17700195 C-12.63292101 11.32375758 -12.51663751 9.34245646 -12.20629883 6.17700195 C-8.54427727 0.68396962 -6.41349081 0.05475966 0 0 Z " fill="#000000" transform="translate(276.206298828125,229.822998046875)"/>
<path d="M0 0 C0.96928185 -0.01073296 0.96928185 -0.01073296 1.95814514 -0.02168274 C4.0828538 -0.03851861 6.20543675 -0.01920191 8.33007812 0.00219727 C9.81311212 0.00136807 11.29614602 -0.00109322 12.7791748 -0.00511169 C15.88285076 -0.00796614 18.98580365 0.00669542 22.08935547 0.03417969 C26.06084262 0.06826316 30.03103733 0.06224164 34.00258636 0.04351711 C37.06364651 0.03293103 40.12440769 0.04189927 43.18544006 0.05690193 C44.64941011 0.06207249 46.11341152 0.06161561 47.57737732 0.05535698 C49.62648262 0.04988475 51.67375955 0.07033848 53.72265625 0.09765625 C54.88671997 0.10385483 56.05078369 0.11005341 57.25012207 0.11643982 C61.00212358 0.73710555 62.68384199 1.97763753 65.36132812 4.63110352 C66.23085733 7.69875935 65.99084042 10.51787909 65.36132812 13.63110352 C63.16301448 16.66326026 61.91169619 17.4476475 58.36132812 18.63110352 C56.37898932 18.72997562 54.39348201 18.76935991 52.40869141 18.77636719 C51.18376984 18.78274704 49.95884827 18.78912689 48.69680786 18.79570007 C47.35841918 18.79722891 46.02002998 18.79834279 44.68164062 18.79907227 C43.3078508 18.80228625 41.93406132 18.80565043 40.56027222 18.80915833 C37.68031013 18.81514559 34.80037803 18.81699866 31.92041016 18.81640625 C28.23617287 18.81630471 24.55212865 18.82995061 20.86793709 18.84717846 C18.0300102 18.8583163 15.1921297 18.8603249 12.3541832 18.85979652 C10.99625865 18.86097419 9.63833281 18.865384 8.28042984 18.87312889 C6.37789659 18.88296324 4.47530663 18.8787776 2.57275391 18.87402344 C0.95084641 18.87616096 0.95084641 18.87616096 -0.7038269 18.87834167 C-4.44762321 18.56295558 -7.27634521 17.47668558 -10.45117188 15.50610352 C-12.02442433 13.02202069 -12.0963115 10.65626142 -12.23242188 7.76391602 C-10.51642317 1.59986804 -5.82704876 0.00481437 0 0 Z " fill="#000000" transform="translate(190.638671875,272.368896484375)"/>
</svg>
